<?xml version="1.0" encoding="UTF-8" standalone="no"?>
<!-- Generator: Adobe Illustrator 19.0.0, SVG Export Plug-In . SVG Version: 6.00 Build 0)  -->

<svg
   xmlns:dc="http://purl.org/dc/elements/1.1/"
   xmlns:cc="http://creativecommons.org/ns#"
   xmlns:rdf="http://www.w3.org/1999/02/22-rdf-syntax-ns#"
   xmlns:svg="http://www.w3.org/2000/svg"
   xmlns="http://www.w3.org/2000/svg"
   xmlns:sodipodi="http://sodipodi.sourceforge.net/DTD/sodipodi-0.dtd"
   xmlns:inkscape="http://www.inkscape.org/namespaces/inkscape"
   version="1.1"
   id="Layer_1"
   x="0px"
   y="0px"
   viewBox="0 0 512 512"
   style="enable-background:new 0 0 512 512;"
   xml:space="preserve"
   inkscape:version="0.91 r13725"
   sodipodi:docname="fish-flaticon.svg"
   inkscape:export-filename="/home/mholtgre/Documents/fish_flaticon.png"
   inkscape:export-xdpi="43.945393"
   inkscape:export-ydpi="43.945393"><metadata
     id="metadata55"><rdf:RDF><cc:Work
         rdf:about=""><dc:format>image/svg+xml</dc:format><dc:type
           rdf:resource="http://purl.org/dc/dcmitype/StillImage" /><dc:title></dc:title></cc:Work></rdf:RDF></metadata><defs
     id="defs53" /><sodipodi:namedview
     pagecolor="#ffffff"
     bordercolor="#666666"
     borderopacity="1"
     objecttolerance="10"
     gridtolerance="10"
     guidetolerance="10"
     inkscape:pageopacity="0"
     inkscape:pageshadow="2"
     inkscape:window-width="1920"
     inkscape:window-height="1149"
     id="namedview51"
     showgrid="false"
     inkscape:zoom="0.4609375"
     inkscape:cx="-205.01695"
     inkscape:cy="238.64407"
     inkscape:window-x="0"
     inkscape:window-y="25"
     inkscape:window-maximized="1"
     inkscape:current-layer="Layer_1" /><g
     id="g3"
     style="fill:#000000;fill-opacity:1"
     inkscape:export-xdpi="43.945393"
     inkscape:export-ydpi="43.945393"
     inkscape:export-filename="/home/mholtgre/Documents/g15.png"><g
       id="g5"
       style="fill:#000000;fill-opacity:1"><circle
         cx="382.425"
         cy="76.873"
         r="15.32"
         id="circle7"
         style="fill:#000000;fill-opacity:1" /></g></g><g
     id="g9"
     style="fill:#000000;fill-opacity:1"
     inkscape:export-xdpi="43.945393"
     inkscape:export-ydpi="43.945393"
     inkscape:export-filename="/home/mholtgre/Documents/g15.png"><g
       id="g11"
       style="fill:#000000;fill-opacity:1"><path
         d="M507.955,48.307l-2.887-12.639l-28.014-0.72l-0.72-28.014l-12.639-2.887c-30.661-7.003-73.918-4.824-115.713,5.827    C316.85,17.808,274.012,33.68,234.923,65.13c-38.325,0.988-95.202,26.734-125.59,57.123c-8.174,8.174-12.167,18.625-11.548,30.226    c0.806,15.114,9.614,32.138,26.178,50.599c3.253,3.626,6.479,6.937,9.445,9.842c-10.075,31.318-13.655,61.082-12.597,86.835    c-45.114-3.278-95.008,13.067-112.657,33.091c-7.758,8.801-10.121,19.246-6.481,28.656c6.859,17.729,25.719,21.114,43.96,24.388    c18.712,3.359,39.923,7.165,56.617,23.86s20.501,37.904,23.86,56.617c3.273,18.24,6.659,37.101,24.387,43.96    c2.898,1.121,5.895,1.673,8.913,1.673c6.777,0,13.654-2.785,19.744-8.154c20.024-17.65,36.37-67.539,33.091-112.657    c2.877,0.118,5.804,0.179,8.778,0.179c23.646-0.001,50.242-3.829,78.063-12.779c3.017,3.1,6.503,6.509,10.332,9.944    c18.46,16.564,35.485,25.372,50.599,26.178c0.78,0.042,1.555,0.062,2.324,0.062c10.671,0,20.278-3.988,27.902-11.612    c30.691-30.69,56.648-88.396,57.148-126.723c31.111-38.916,46.845-81.459,54.735-112.42    C512.778,122.225,514.957,78.968,507.955,48.307z M131.127,150.704c-0.114-2.119,0.363-3.386,1.816-4.84    c14.007-14.005,35.948-27.303,57.754-36.228c-18.71,22.738-33.088,46.028-43.801,68.977    C138.403,168.723,131.525,158.163,131.127,150.704z M366.633,379.554c-1.452,1.452-2.721,1.923-4.829,1.817    c-7.555-0.395-18.375-7.536-28.442-16.258c23.307-10.876,46.965-25.528,70.04-44.663    C394.479,342.697,380.929,365.258,366.633,379.554z M469.772,155.773c-3.087,12.113-7.514,26.206-13.825,41.109    c-35.728-4.401-68.985-20.566-94.623-46.206c-18.17-18.17-31.41-39.668-39.353-63.897L290.244,97.18    c9.59,29.254,25.561,55.196,47.471,77.106c28.113,28.113,63.825,46.774,102.465,53.925c-9.252,15.633-20.821,31.28-35.281,45.739    c-32.395,32.394-70.483,56.882-110.148,70.817c-34.333,12.061-69.698,16.056-99.583,11.245l-24.943-4.013l6.087,24.519    c4.586,18.472,3.767,42.384-2.246,65.601c-3.882,14.993-8.761,25.242-12.55,31.162c-0.951-3.935-1.82-8.786-2.543-12.814    c-3.804-21.197-9.015-50.229-33.114-74.328s-53.131-29.31-74.328-33.114c-4.028-0.723-8.878-1.594-12.814-2.543    c5.92-3.789,16.169-8.668,31.162-12.55c23.217-6.014,47.128-6.833,65.601-2.246L160,341.773l-4.013-24.943    c-4.809-29.884-0.815-65.25,11.245-99.583c13.934-39.665,38.422-77.753,70.817-110.148c38.55-38.55,85.543-56.556,118.179-64.875    c35.454-9.036,66.423-10.097,87.414-7.716l0.848,32.997l32.997,0.848C479.869,89.352,478.807,120.32,469.772,155.773z"
         id="path13"
         style="fill:#000000;fill-opacity:1" /></g></g><g
     id="g15"
     style="fill:#000000;fill-opacity:1"
     inkscape:export-xdpi="43.945393"
     inkscape:export-ydpi="43.945393"
     inkscape:export-filename="/home/mholtgre/Documents/g15.png"><g
       id="g17"
       style="fill:#000000;fill-opacity:1"><path
         d="M125.859,386.142L125.859,386.142L125.859,386.142z"
         id="path19"
         style="fill:#000000;fill-opacity:1" /></g></g><g
     id="g21"
     style="fill:#000000;fill-opacity:1" /><g
     id="g23"
     style="fill:#000000;fill-opacity:1" /><g
     id="g25"
     style="fill:#000000;fill-opacity:1" /><g
     id="g27"
     style="fill:#000000;fill-opacity:1" /><g
     id="g29"
     style="fill:#000000;fill-opacity:1" /><g
     id="g31"
     style="fill:#000000;fill-opacity:1" /><g
     id="g33"
     style="fill:#000000;fill-opacity:1" /><g
     id="g35"
     style="fill:#000000;fill-opacity:1" /><g
     id="g37"
     style="fill:#000000;fill-opacity:1" /><g
     id="g39"
     style="fill:#000000;fill-opacity:1" /><g
     id="g41"
     style="fill:#000000;fill-opacity:1" /><g
     id="g43"
     style="fill:#000000;fill-opacity:1" /><g
     id="g45"
     style="fill:#000000;fill-opacity:1" /><g
     id="g47"
     style="fill:#000000;fill-opacity:1" /><g
     id="g49"
     style="fill:#000000;fill-opacity:1" /></svg>